:SAMPLES-PER-SECOND 30
:FULLY-SPECIFIED
:DEGREES
159
root  -11.495 40.4216 8.33401 -71.4704 -88.1864 75.0295
RightUpLeg  -4.5214 -18.7082 -15.4256
RightLeg  11.0425 -16.5416 1.36734
RightFoot  -1.12591 -0.761936 8.4813
RightToes  -2.9104e-010 0 -3.6325e-017
Spine  16.84 3.92507 11.1905
Spine1  19.8466 11.1404 -13.6325
HEad  -2.68094 -16.9775 12.2302
LeftShoulder1  8.88165 -15.2597 -41.0209
LeftArm  -9.93795 9.69022 -26.0221
LeftForeArm  36.3276 -30.5071 -4.64686
LeftHand  -0.244104 0.0205437 5.32207
RightShoulder  1.90825 5.8916 13.3743
RightArm  -60.6837 74.602 -5.14091
RightForeArm  -25.0489 4.46872 5.24986
RightHand  -2.9259 11.7558 -19.8827
LeftUpLeg  -16.1323 3.40118 -1.97351
LeftLeg  11.0189 -4.64992 -2.48573
LeftFoot  2.96518 -0.410672 3.12817
LeftToes  -1.62803e-010 -2.57217e-011 -2.5681e-011
160
root  -11.5704 40.4228 8.33555 -54.2721 -87.9756 57.7411
RightUpLeg  -3.94308 -18.4868 -15.5646
RightLeg  10.8119 -17.2829 1.4647
RightFoot  -1.20615 -0.773007 8.65133
RightToes  -2.9104e-010 0 -3.6325e-017
Spine  16.638 3.96084 10.7779
Spine1  19.8007 11.0979 -13.6553
HEad  -2.94975 -16.3422 12.9495
LeftShoulder1  8.88361 -15.2452 -41.065
LeftArm  -10.1653 10.1958 -25.8795
LeftForeArm  36.3052 -30.4164 -4.62732
LeftHand  -0.244104 0.0205437 5.32207
RightShoulder  1.89093 5.80713 13.3723
RightArm  -61.0223 74.7186 -5.63624
RightForeArm  -22.2728 4.03463 5.14639
RightHand  -1.55928 8.53046 -13.3407
LeftUpLeg  -16.0073 2.92927 -2.02653
LeftLeg  11.123 -4.81277 -2.35077
LeftFoot  2.80504 -0.403355 3.11306
LeftToes  -1.62803e-010 -2.57217e-011 -2.5681e-011
161
root  -11.6307 40.4203 8.33859 -42.4477 -87.7547 45.8455
RightUpLeg  -3.48456 -18.2059 -15.5878
RightLeg  10.6094 -17.9686 1.53196
RightFoot  -1.2599 -0.781181 8.76879
RightToes  -2.9104e-010 0 -3.6325e-017
Spine  16.4887 3.96608 10.5448
Spine1  19.6928 11.0913 -13.8047
HEad  -3.16975 -15.8286 13.7867
LeftShoulder1  8.84882 -15.1965 -41.0065
LeftArm  -10.1828 10.4458 -25.8977
LeftForeArm  36.4482 -30.1602 -4.56148
LeftHand  -0.244104 0.0205437 5.32207
RightShoulder  1.90576 5.75941 13.6635
RightArm  -60.9834 74.7897 -6.38609
RightForeArm  -19.9078 3.41909 5.18331
RightHand  -0.9278 6.85224 -9.19859
LeftUpLeg  -15.9877 2.60093 -2.02842
LeftLeg  11.364 -5.01022 -2.21871
LeftFoot  2.62445 -0.392391 3.0735
LeftToes  -1.62803e-010 -2.57217e-011 -2.5681e-011
162
root  -11.6746 40.4169 8.34722 -35.7626 -87.6276 39.1207
RightUpLeg  -3.19872 -17.916 -15.5322
RightLeg  10.4517 -18.4724 1.55311
RightFoot  -1.28247 -0.787235 8.84309
RightToes  -2.9104e-010 0 -3.6325e-017
Spine  16.3614 3.9902 10.4506
Spine1  19.6069 11.1749 -14.0708
HEad  -3.40558 -15.4198 14.6533
LeftShoulder1  8.80693 -15.151 -40.904
LeftArm  -10.0466 10.459 -25.9987
LeftForeArm  36.5864 -29.8639 -4.48714
LeftHand  -0.244104 0.0205437 5.32207
RightShoulder  1.95336 5.79878 14.1302
RightArm  -60.8106 74.7571 -7.20936
RightForeArm  -18.1182 2.83388 5.26034
RightHand  -0.875371 6.92504 -8.57096
LeftUpLeg  -16.0229 2.46759 -2.00105
LeftLeg  11.6227 -5.1802 -2.13951
LeftFoot  2.46891 -0.389045 3.08819
LeftToes  -1.62803e-010 -2.57217e-011 -2.5681e-011
163
root  -11.7058 40.4158 8.36413 -33.3623 -87.6227 36.679
RightUpLeg  -3.03877 -17.6931 -15.486
RightLeg  10.3448 -18.7154 1.54778
RightFoot  -1.26934 -0.789722 8.84893
RightToes  -2.9104e-010 0 -3.6325e-017
Spine  16.2421 4.07063 10.3543
Spine1  19.5957 11.2989 -14.238
HEad  -3.74155 -15.0465 15.2956
LeftShoulder1  8.81587 -15.1384 -40.9791
LeftArm  -9.98036 10.3522 -26.0395
LeftForeArm  36.7909 -29.7256 -4.44531
LeftHand  -0.244104 0.0205437 5.32207
RightShoulder  2.00534 5.93498 14.4032
RightArm  -60.1182 74.6047 -7.20702
RightForeArm  -17.5606 2.51994 5.35811
RightHand  -1.00982 7.44789 -9.45789
LeftUpLeg  -16.0132 2.52559 -1.98297
LeftLeg  11.7905 -5.29697 -2.13229
LeftFoot  2.35607 -0.393449 3.15636
LeftToes  -1.62803e-010 -2.57217e-011 -2.5681e-011
164
root  -11.7242 40.4187 8.38882 -33.7871 -87.7186 37.0878
RightUpLeg  -2.98922 -17.5183 -15.4587
RightLeg  10.2435 -18.7918 1.55094
RightFoot  -1.19585 -0.787726 8.76657
RightToes  -2.9104e-010 0 -3.6325e-017
Spine  16.112 4.15718 10.2653
Spine1  19.6163 11.4007 -14.3053
HEad  -4.20093 -14.7029 15.6516
LeftShoulder1  8.86771 -15.141 -41.2341
LeftArm  -10.0791 10.2333 -26.004
LeftForeArm  37.0688 -29.8055 -4.44886
LeftHand  -0.244104 0.0205437 5.32207
RightShoulder  2.03679 6.05804 14.4641
RightArm  -59.1211 74.541 -6.42252
RightForeArm  -18.0133 2.39961 5.46643
RightHand  -1.03813 7.46475 -9.69689
LeftUpLeg  -15.9857 2.68312 -1.97446
LeftLeg  11.8491 -5.33318 -2.16737
LeftFoot  2.30385 -0.398991 3.21811
LeftToes  -1.62803e-010 -2.57217e-011 -2.5681e-011
165
root  -11.7285 40.4257 8.42007 -37.6727 -87.9234 41.0007
RightUpLeg  -3.03954 -17.3337 -15.4423
RightLeg  10.0787 -18.7443 1.58291
RightFoot  -1.06869 -0.790131 8.69259
RightToes  -2.9104e-010 0 -3.6325e-017
Spine  15.9631 4.16863 10.2795
Spine1  19.6267 11.4851 -14.5184
HEad  -4.73347 -14.4525 15.872
LeftShoulder1  8.89185 -15.1361 -41.3672
LeftArm  -10.2212 10.1608 -26.0492
LeftForeArm  37.2135 -29.9885 -4.48259
LeftHand  -0.244104 0.0205437 5.32207
RightShoulder  2.05481 6.07607 14.6268
RightArm  -58.1773 74.7681 -5.41798
RightForeArm  -18.0323 2.46389 5.56363
RightHand  -1.00677 7.14491 -9.64549
LeftUpLeg  -15.9769 2.87786 -1.97487
LeftLeg  11.8217 -5.21388 -2.20884
LeftFoot  2.32779 -0.406094 3.26985
LeftToes  -1.62803e-010 -2.57217e-011 -2.5681e-011
166
root  -11.7245 40.4352 8.45782 -50.2695 -88.2232 53.5844
RightUpLeg  -3.11268 -17.1751 -15.5075
RightLeg  9.85747 -18.4023 1.63808
RightFoot  -0.949909 -0.804385 8.75783
RightToes  -2.9104e-010 0 -3.6325e-017
Spine  15.8496 4.10553 10.3319
Spine1  19.5883 11.5621 -14.9354
HEad  -5.23918 -14.3256 16.0311
LeftShoulder1  8.86328 -15.1212 -41.2591
LeftArm  -10.3007 10.1618 -26.2101
LeftForeArm  37.1576 -30.1672 -4.52593
LeftHand  -0.244104 0.0205437 5.32207
RightShoulder  2.09322 6.10476 14.9946
RightArm  -56.218 75.1018 -3.45322
RightForeArm  -16.9171 3.18136 5.74651
RightHand  -1.13801 7.0169 -10.9405
LeftUpLeg  -15.8829 3.17149 -2.0179
LeftLeg  11.7226 -4.90241 -2.2644
LeftFoot  2.39608 -0.4197 3.36284
LeftToes  -1.62803e-010 -2.57217e-011 -2.5681e-011
167
root  -11.7233 40.4459 8.49903 -76.9431 -88.4046 80.1389
RightUpLeg  -3.1624 -17.0737 -15.6789
RightLeg  9.64986 -17.684 1.69314
RightFoot  -0.873789 -0.82503 8.92391
RightToes  -2.9104e-010 0 -3.6325e-017
Spine  15.7933 4.04218 10.2182
Spine1  19.4359 11.5681 -15.2604
HEad  -5.61502 -14.2089 16.0369
LeftShoulder1  8.82819 -15.0674 -41.2116
LeftArm  -10.3765 10.2431 -26.2632
LeftForeArm  37.0996 -30.3594 -4.57262
LeftHand  -0.244104 0.0205437 5.32207
RightShoulder  2.19827 6.37804 15.4985
RightArm  -51.3532 75.0658 0.948272
RightForeArm  -15.8142 5.05871 6.27531
RightHand  -1.44337 7.16096 -13.6148
LeftUpLeg  -15.613 3.63843 -2.09619
LeftLeg  11.5666 -4.46937 -2.36732
LeftFoot  2.44623 -0.437445 3.49466
LeftToes  -1.62803e-010 -2.57217e-011 -2.5681e-011
168
root  -11.7295 40.4593 8.53467 -109.205 -88.1642 112.24
RightUpLeg  -3.22339 -16.8837 -15.8216
RightLeg  9.44288 -16.8858 1.73575
RightFoot  -0.787251 -0.838389 9.00091
RightToes  -2.9104e-010 0 -3.6325e-017
Spine  15.6488 4.00887 9.85974
Spine1  19.209 11.4175 -15.2192
HEad  -5.82638 -13.9092 15.8481
LeftShoulder1  8.8064 -14.9245 -41.4469
LeftArm  -10.5967 10.398 -26.0908
LeftForeArm  37.1551 -30.5907 -4.62249
LeftHand  -0.244104 0.0205437 5.32207
RightShoulder  2.41036 6.95335 16.3738
RightArm  -43.1581 74.3624 7.57848
RightForeArm  -15.7684 8.0669 7.25479
RightHand  -1.6893 7.2852 -15.7189
LeftUpLeg  -15.2489 4.20244 -2.1157
LeftLeg  11.3759 -3.99425 -2.50349
LeftFoot  2.45673 -0.448757 3.58483
LeftToes  -1.62803e-010 -2.57217e-011 -2.5681e-011
